<svg xmlns="http://www.w3.org/2000/svg" viewBox="370 255 510 275">
  <rect x="370" y="255" width="510" height="275" rx="40" fill="#0a2540"/>
  <polygon fill="#00A4FF" points="382.26,417.56 382.26,514.48 626.44,272.37 525.48,272.37"/>
  <polygon fill="#00A4FF" points="382.26,272.37 382.26,370.07 480.06,272.37"/>
  <polygon fill="#00A4FF" points="626.44,514.48 524.15,514.9 446.61,434.06 499.4,384.56"/>
  <polygon fill="#00A4FF" points="382.26,514.48 480.06,514.48 416.91,453.85"/>
  <polygon fill="#006896" points="382.26,514.48 442.91,478.82 430.37,466.78"/>
  <polyline fill="#006896" points="473.56,462.16 536.52,422.53 506,391.16 454.78,442.58"/>
  <path fill="#006896" d="M739.91,271.74c72.29,0,127.63,49.11,127.63,122.09c0,73.32-55.69,120.02-127.28,120.02H636.84V271.74H739.91z M736.8,459.89c35.97,0,72.29-18.33,72.29-66.06c0-47.38-36.32-68.14-72.29-68.14l-69.11-0.53l27.26,12.3v122.43H736.8z"/>
  <path fill="#00A4FF" d="M636.84,325.17l108.45,0.93c0,0,105.52,7.32,105.29,131.21c0.23-0.15,39.5-56.9-1.58-129.99c-36.14-54.94-101.38-55.58-101.38-55.58H636.84V325.17z"/>
</svg>
