<?xml version="1.0" encoding="utf-8"?>
<!-- Generator: Adobe Illustrator 24.3.0, SVG Export Plug-In . SVG Version: 6.00 Build 0)  -->
<svg version="1.1" xmlns="http://www.w3.org/2000/svg" xmlns:xlink="http://www.w3.org/1999/xlink" x="0px" y="0px"
	 viewBox="0 0 2400 1080" style="enable-background:new 0 0 2400 1080;" xml:space="preserve">
<style type="text/css">
	.st0{fill:#00A4FF;}
	.st1{fill:#333333;}
	.st2{fill:#006896;}
	.st3{font-family:'DINCondensed-Light';}
	.st4{font-size:48.4267px;}
	.st5{letter-spacing:9;}
	.st6{fill:#F2F2F2;}
	.st7{fill:#CCCCCC;}
	.st8{fill:#FFFFFF;}
	.st9{font-size:34.8373px;}
	.st10{letter-spacing:6;}
	.st11{font-size:31.4129px;}
</style>
<g id="Camada_1">
</g>
<g id="Camada_2">
	<rect x="1306.01" y="-4.45" class="st0" width="1102.99" height="545.45"/>
	<rect x="1305" y="541" class="st1" width="1102.99" height="545.45"/>
	<g>
		<g>
			<polygon class="st0" points="382.26,417.56 382.26,514.48 626.44,272.37 525.48,272.37 			"/>
			<polygon class="st0" points="382.26,272.37 382.26,370.07 480.06,272.37 			"/>
			<polygon class="st0" points="626.44,514.48 524.15,514.9 446.61,434.06 499.4,384.56 			"/>
			<polygon class="st0" points="382.26,514.48 480.06,514.48 416.91,453.85 			"/>
			<polygon class="st2" points="382.26,514.48 442.91,478.82 430.37,466.78 			"/>
			<polyline class="st2" points="473.56,462.16 536.52,422.53 506,391.16 454.78,442.58 			"/>
			<g>
				<path class="st2" d="M739.91,271.74c72.29,0,127.63,49.11,127.63,122.09c0,73.32-55.69,120.02-127.28,120.02H636.84V271.74
					H739.91z M736.8,459.89c35.97,0,72.29-18.33,72.29-66.06c0-47.38-36.32-68.14-72.29-68.14l-69.11-0.53l27.26,12.3v122.43H736.8z
					"/>
			</g>
			<path class="st0" d="M636.84,325.17l108.45,0.93c0,0,105.52,7.32,105.29,131.21c0.23-0.15,39.5-56.9-1.58-129.99
				c-36.14-54.94-101.38-55.58-101.38-55.58H636.84V325.17z"/>
		</g>
		<g>
			<g>
				<path class="st1" d="M562.87,591.27h-36.86c-1.24,0-2.25-1.01-2.25-2.25v-17.13h104.68v17.14c0,1.24-1.01,2.25-2.25,2.25h-36.91
					c-0.95,0-1.72,0.77-1.72,1.72v99.72c0,1.4-1.14,2.54-2.54,2.54h-17.66c-1.5,0-2.71-1.21-2.71-2.71v-99.49
					C564.65,592.06,563.85,591.27,562.87,591.27z"/>
				<path class="st1" d="M738.24,679.55v15.7h-89.05c-1.92,0-3.47-1.55-3.47-3.47v-119.9h90.06v15.77c0,1.9-1.54,3.44-3.44,3.44
					h-60.62c-1.7,0-3.08,1.38-3.08,3.08v25.77c0,1.78,1.44,3.22,3.22,3.22h56.35v18.86h-56.22c-1.85,0-3.35,1.5-3.35,3.35v27.48
					c0,1.76,1.43,3.19,3.19,3.19h62.91C736.66,676.04,738.24,677.61,738.24,679.55z"/>
				<path class="st1" d="M754.45,633.56c0-36.83,28.2-63.44,66.09-63.44c20.09,0,37.36,7.23,48.82,20.62l-12.39,11.65
					c-1.31,1.23-3.35,1.23-4.66,0c-8.57-8.16-18.9-12.18-30.71-12.18c-25.55,0-44.06,17.98-44.06,43.35
					c0,25.38,18.5,43.35,44.06,43.35c11.86,0,22.21-4.04,30.8-12.4c1.24-1.21,3.23-1.21,4.49-0.01l12.47,11.88
					c-11.46,13.39-28.73,20.62-48.99,20.62C782.65,697.01,754.45,670.4,754.45,633.56z"/>
				<path class="st1" d="M1001,571.88v120.06c0,1.82-1.48,3.3-3.3,3.3h-16.47c-1.74,0-3.14-1.41-3.14-3.14V645.7
					c0-1.83-1.49-3.32-3.32-3.32h-57.13c-1.85,0-3.34,1.5-3.34,3.34v45.87c0,2.02-1.64,3.66-3.66,3.66h-15.82
					c-1.9,0-3.43-1.54-3.43-3.43V571.88h22.91v47.47c0,1.91,1.55,3.46,3.46,3.46h56.97c1.86,0,3.37-1.51,3.37-3.37v-47.56H1001z"/>
				<g>
					<path class="st1" d="M287.88,646.41l-12.31,12.64c-2.49,2.56-3.88,5.98-3.88,9.55v20.86c0,2.66-2.16,4.82-4.82,4.82h-12.87
						c-2.76,0-5.01-2.24-5.01-5.01V572.1h17.85c2.68,0,4.84,2.17,4.84,4.84v52.03c0,2.1,2.56,3.14,4.02,1.62l56.37-58.49h25.48
						l-47.03,50.07c-2.46,2.62-2.61,6.65-0.36,9.44l50.53,62.67h-26.53l-40.17-47.65C292.43,644.76,289.59,644.66,287.88,646.41z"/>
					<path class="st1" d="M390.82,578.46c0-3.51,2.85-6.36,6.36-6.36h47.05c39.62,0,66.68,24.44,66.68,61.09
						s-27.05,61.09-66.68,61.09h-53.41V578.46z M443.19,675.08c27.23,0,44.86-16.58,44.86-41.89c0-25.31-17.63-41.89-44.86-41.89
						h-23.34c-3.5,0-6.34,2.84-6.34,6.34v71.1c0,3.5,2.84,6.34,6.34,6.34H443.19z"/>
				</g>
			</g>
		</g>
		<text transform="matrix(1 0 0 1 451.248 769.3155)" class="st3 st4 st5">WEB SERVICES</text>
	</g>
	<g>
		<g>
			<polygon class="st6" points="1698.1,210.24 1698.1,279.96 1873.75,105.79 1801.13,105.79 			"/>
			<polygon class="st6" points="1698.1,105.79 1698.1,176.08 1768.45,105.79 			"/>
			<polygon class="st6" points="1873.75,279.96 1800.17,280.26 1744.39,222.11 1782.37,186.5 			"/>
			<polygon class="st6" points="1698.1,279.96 1768.45,279.96 1723.02,236.35 			"/>
			<polygon class="st7" points="1698.1,279.96 1741.73,254.3 1732.71,245.65 			"/>
			<polyline class="st7" points="1763.78,242.32 1809.07,213.81 1787.11,191.25 1750.27,228.24 			"/>
			<g>
				<path class="st7" d="M1955.38,105.34c52,0,91.81,35.33,91.81,87.83c0,52.75-40.06,86.34-91.56,86.34h-74.4V105.34H1955.38z
					 M1953.15,240.69c25.88,0,52-13.19,52-47.52c0-34.09-26.12-49.02-52-49.02l-49.72-0.38l19.61,8.85v88.07H1953.15z"/>
			</g>
			<path class="st6" d="M1881.24,143.77l78.02,0.67c0,0,75.91,5.27,75.75,94.39c0.16-0.11,28.42-40.93-1.14-93.51
				c-26-39.53-72.93-39.98-72.93-39.98h-79.69V143.77z"/>
		</g>
		<g>
			<g>
				<path class="st8" d="M1828.03,335.2h-26.51c-0.9,0-1.62-0.73-1.62-1.62v-12.32h75.31v12.33c0,0.89-0.72,1.62-1.62,1.62h-26.55
					c-0.68,0-1.24,0.56-1.24,1.24v71.73c0,1.01-0.82,1.83-1.83,1.83h-12.7c-1.08,0-1.95-0.87-1.95-1.95v-71.57
					C1829.3,335.77,1828.73,335.2,1828.03,335.2z"/>
				<path class="st8" d="M1954.18,398.71V410h-64.06c-1.38,0-2.5-1.12-2.5-2.5v-86.25h64.78v11.34c0,1.37-1.11,2.47-2.47,2.47
					h-43.61c-1.23,0-2.22,0.99-2.22,2.22v18.54c0,1.28,1.04,2.31,2.31,2.31h40.54v13.57h-40.44c-1.33,0-2.41,1.08-2.41,2.41v19.77
					c0,1.27,1.03,2.29,2.29,2.29h45.26C1953.05,396.18,1954.18,397.31,1954.18,398.71z"/>
				<path class="st8" d="M1965.84,365.63c0-26.5,20.28-45.64,47.54-45.64c14.45,0,26.88,5.2,35.12,14.83l-8.91,8.38
					c-0.94,0.89-2.41,0.89-3.35,0c-6.16-5.87-13.6-8.76-22.1-8.76c-18.38,0-31.7,12.93-31.7,31.19c0,18.26,13.31,31.19,31.7,31.19
					c8.53,0,15.98-2.91,22.16-8.92c0.9-0.87,2.32-0.87,3.23-0.01l8.97,8.54c-8.24,9.64-20.67,14.83-35.24,14.83
					C1986.13,411.27,1965.84,392.12,1965.84,365.63z"/>
				<path class="st8" d="M2143.21,321.25v86.37c0,1.31-1.06,2.37-2.37,2.37h-11.85c-1.25,0-2.26-1.01-2.26-2.26v-33.38
					c0-1.32-1.07-2.39-2.39-2.39h-41.1c-1.33,0-2.41,1.08-2.41,2.41v33c0,1.45-1.18,2.63-2.63,2.63h-11.38
					c-1.36,0-2.47-1.11-2.47-2.47v-86.28h16.48v34.15c0,1.37,1.11,2.49,2.49,2.49h40.98c1.34,0,2.42-1.09,2.42-2.42v-34.22H2143.21z
					"/>
				<g>
					<path class="st8" d="M1630.2,374.87l-8.85,9.09c-1.79,1.84-2.79,4.3-2.79,6.87v15.01c0,1.91-1.55,3.47-3.47,3.47h-9.26
						c-1.99,0-3.6-1.61-3.6-3.6v-84.29h12.84c1.92,0,3.48,1.56,3.48,3.48v37.43c0,1.51,1.84,2.26,2.89,1.17l40.55-42.08h18.33
						l-33.83,36.02c-1.77,1.88-1.88,4.78-0.26,6.79l36.35,45.09h-19.09l-28.9-34.28C1633.48,373.68,1631.43,373.61,1630.2,374.87z"
						/>
					<path class="st8" d="M1704.26,325.99c0-2.53,2.05-4.58,4.58-4.58h33.85c28.5,0,47.97,17.58,47.97,43.95
						c0,26.37-19.46,43.95-47.97,43.95h-38.42V325.99z M1741.93,395.49c19.59,0,32.27-11.93,32.27-30.14
						c0-18.21-12.68-30.14-32.27-30.14h-16.79c-2.52,0-4.56,2.04-4.56,4.56v51.15c0,2.52,2.04,4.56,4.56,4.56H1741.93z"/>
				</g>
			</g>
		</g>
		<text transform="matrix(1 0 0 1 1747.7257 463.2856)" class="st8 st3 st9 st10">WEB SERVICES</text>
	</g>
	<g>
		<g>
			<polygon class="st0" points="1715.26,776.85 1715.26,839.72 1873.65,682.67 1808.16,682.67 			"/>
			<polygon class="st0" points="1715.26,682.67 1715.26,746.04 1778.7,682.67 			"/>
			<polygon class="st0" points="1873.65,839.72 1807.3,839.99 1757,787.55 1791.25,755.44 			"/>
			<polygon class="st0" points="1715.26,839.72 1778.7,839.72 1737.74,800.39 			"/>
			<polygon class="st2" points="1715.26,839.72 1754.6,816.58 1746.47,808.77 			"/>
			<polyline class="st2" points="1774.49,805.78 1815.33,780.07 1795.53,759.72 1762.3,793.08 			"/>
			<g>
				<path class="st2" d="M1947.26,682.26c46.89,0,82.79,31.86,82.79,79.2c0,47.56-36.12,77.85-82.56,77.85h-67.08V682.26H1947.26z
					 M1945.24,804.31c23.33,0,46.89-11.89,46.89-42.85c0-30.74-23.56-44.2-46.89-44.2l-44.83-0.34l17.69,7.98v79.42H1945.24z"/>
			</g>
			<path class="st0" d="M1880.4,716.92l70.35,0.6c0,0,68.45,4.75,68.3,85.11c0.15-0.1,25.62-36.91-1.03-84.32
				c-23.44-35.64-65.76-36.05-65.76-36.05h-71.86V716.92z"/>
		</g>
		<g>
			<g>
				<path class="st8" d="M1832.42,889.53h-23.91c-0.81,0-1.46-0.65-1.46-1.46v-11.11h67.91v11.12c0,0.81-0.65,1.46-1.46,1.46h-23.94
					c-0.62,0-1.12,0.5-1.12,1.12v64.68c0,0.91-0.74,1.65-1.65,1.65h-11.45c-0.97,0-1.76-0.79-1.76-1.76v-64.54
					C1833.57,890.04,1833.06,889.53,1832.42,889.53z"/>
				<path class="st8" d="M1946.17,946.79v10.18h-57.77c-1.24,0-2.25-1.01-2.25-2.25v-77.77h58.42v10.23c0,1.23-1,2.23-2.23,2.23
					h-39.32c-1.1,0-2,0.9-2,2v16.72c0,1.15,0.93,2.09,2.09,2.09h36.55v12.23h-36.47c-1.2,0-2.17,0.97-2.17,2.17v17.82
					c0,1.14,0.93,2.07,2.07,2.07h40.81C1945.15,944.51,1946.17,945.53,1946.17,946.79z"/>
				<path class="st8" d="M1956.69,916.96c0-23.89,18.29-41.15,42.87-41.15c13.03,0,24.24,4.69,31.67,13.38l-8.04,7.56
					c-0.85,0.8-2.18,0.8-3.02,0c-5.56-5.3-12.26-7.9-19.92-7.9c-16.58,0-28.58,11.66-28.58,28.12c0,16.46,12,28.12,28.58,28.12
					c7.69,0,14.41-2.62,19.98-8.04c0.81-0.79,2.1-0.78,2.91-0.01l8.09,7.7c-7.43,8.69-18.63,13.38-31.78,13.38
					C1974.98,958.12,1956.69,940.86,1956.69,916.96z"/>
				<path class="st8" d="M2116.62,876.95v77.88c0,1.18-0.96,2.14-2.14,2.14h-10.68c-1.13,0-2.04-0.91-2.04-2.04v-30.1
					c0-1.19-0.96-2.15-2.15-2.15h-37.06c-1.2,0-2.17,0.97-2.17,2.17v29.75c0,1.31-1.06,2.37-2.37,2.37h-10.26
					c-1.23,0-2.23-1-2.23-2.23v-77.8h14.86v30.79c0,1.24,1,2.24,2.24,2.24h36.95c1.21,0,2.19-0.98,2.19-2.19v-30.85H2116.62z"/>
				<g>
					<path class="st8" d="M1654.04,925.29l-7.98,8.2c-1.61,1.66-2.52,3.88-2.52,6.2v13.53c0,1.73-1.4,3.12-3.12,3.12h-8.35
						c-1.79,0-3.25-1.45-3.25-3.25v-76.01h11.58c1.74,0,3.14,1.41,3.14,3.14v33.75c0,1.36,1.66,2.03,2.61,1.05l36.57-37.94h16.53
						l-30.51,32.48c-1.59,1.7-1.69,4.31-0.23,6.12l32.78,40.65h-17.21l-26.06-30.91C1656.99,924.22,1655.15,924.16,1654.04,925.29z"
						/>
					<path class="st8" d="M1720.82,881.22c0-2.28,1.85-4.13,4.13-4.13h30.52c25.7,0,43.25,15.85,43.25,39.63
						c0,23.78-17.55,39.63-43.25,39.63h-34.65V881.22z M1754.78,943.89c17.66,0,29.1-10.76,29.1-27.17
						c0-16.42-11.44-27.17-29.1-27.17h-15.14c-2.27,0-4.11,1.84-4.11,4.11v46.12c0,2.27,1.84,4.12,4.12,4.12H1754.78z"/>
				</g>
			</g>
		</g>
		<text transform="matrix(1 0 0 1 1760.012 1005.0205)" class="st8 st3 st11 st10">WEB SERVICES</text>
	</g>
</g>
</svg>
