<svg xmlns="http://www.w3.org/2000/svg" viewBox="240 260 780 530" xml:space="preserve">
  <!-- KD Mark -->
  <polygon fill="#00A4FF" points="382.26,417.56 382.26,514.48 626.44,272.37 525.48,272.37"/>
  <polygon fill="#00A4FF" points="382.26,272.37 382.26,370.07 480.06,272.37"/>
  <polygon fill="#00A4FF" points="626.44,514.48 524.15,514.9 446.61,434.06 499.4,384.56"/>
  <polygon fill="#00A4FF" points="382.26,514.48 480.06,514.48 416.91,453.85"/>
  <polygon fill="#006896" points="382.26,514.48 442.91,478.82 430.37,466.78"/>
  <polyline fill="#006896" points="473.56,462.16 536.52,422.53 506,391.16 454.78,442.58"/>
  <!-- D shape -->
  <path fill="#006896" d="M739.91,271.74c72.29,0,127.63,49.11,127.63,122.09c0,73.32-55.69,120.02-127.28,120.02H636.84V271.74H739.91z M736.8,459.89c35.97,0,72.29-18.33,72.29-66.06c0-47.38-36.32-68.14-72.29-68.14l-69.11-0.53l27.26,12.3v122.43H736.8z"/>
  <path fill="#00A4FF" d="M636.84,325.17l108.45,0.93c0,0,105.52,7.32,105.29,131.21c0.23-0.15,39.5-56.9-1.58-129.99c-36.14-54.94-101.38-55.58-101.38-55.58H636.84V325.17z"/>

  <!-- KDTECH letters in white -->
  <!-- K -->
  <path fill="#FFFFFF" d="M287.88,646.41l-12.31,12.64c-2.49,2.56-3.88,5.98-3.88,9.55v20.86c0,2.66-2.16,4.82-4.82,4.82h-12.87c-2.76,0-5.01-2.24-5.01-5.01V572.1h17.85c2.68,0,4.84,2.17,4.84,4.84v52.03c0,2.1,2.56,3.14,4.02,1.62l56.37-58.49h25.48l-47.03,50.07c-2.46,2.62-2.61,6.65-0.36,9.44l50.53,62.67h-26.53l-40.17-47.65C292.43,644.76,289.59,644.66,287.88,646.41z"/>
  <!-- D -->
  <path fill="#FFFFFF" d="M390.82,578.46c0-3.51,2.85-6.36,6.36-6.36h47.05c39.62,0,66.68,24.44,66.68,61.09s-27.05,61.09-66.68,61.09h-53.41V578.46z M443.19,675.08c27.23,0,44.86-16.58,44.86-41.89c0-25.31-17.63-41.89-44.86-41.89h-23.34c-3.5,0-6.34,2.84-6.34,6.34v71.1c0,3.5,2.84,6.34,6.34,6.34H443.19z"/>
  <!-- T -->
  <path fill="#FFFFFF" d="M562.87,591.27h-36.86c-1.24,0-2.25-1.01-2.25-2.25v-17.13h104.68v17.14c0,1.24-1.01,2.25-2.25,2.25h-36.91c-0.95,0-1.72,0.77-1.72,1.72v99.72c0,1.4-1.14,2.54-2.54,2.54h-17.66c-1.5,0-2.71-1.21-2.71-2.71v-99.49C564.65,592.06,563.85,591.27,562.87,591.27z"/>
  <!-- E -->
  <path fill="#FFFFFF" d="M738.24,679.55v15.7h-89.05c-1.92,0-3.47-1.55-3.47-3.47v-119.9h90.06v15.77c0,1.9-1.54,3.44-3.44,3.44h-60.62c-1.7,0-3.08,1.38-3.08,3.08v25.77c0,1.78,1.44,3.22,3.22,3.22h56.35v18.86h-56.22c-1.85,0-3.35,1.5-3.35,3.35v27.48c0,1.76,1.43,3.19,3.19,3.19h62.91C736.66,676.04,738.24,677.61,738.24,679.55z"/>
  <!-- C -->
  <path fill="#FFFFFF" d="M754.45,633.56c0-36.83,28.2-63.44,66.09-63.44c20.09,0,37.36,7.23,48.82,20.62l-12.39,11.65c-1.31,1.23-3.35,1.23-4.66,0c-8.57-8.16-18.9-12.18-30.71-12.18c-25.55,0-44.06,17.98-44.06,43.35c0,25.38,18.5,43.35,44.06,43.35c11.86,0,22.21-4.04,30.8-12.4c1.24-1.21,3.23-1.21,4.49-0.01l12.47,11.88c-11.46,13.39-28.73,20.62-48.99,20.62C782.65,697.01,754.45,670.4,754.45,633.56z"/>
  <!-- H -->
  <path fill="#FFFFFF" d="M1001,571.88v120.06c0,1.82-1.48,3.3-3.3,3.3h-16.47c-1.74,0-3.14-1.41-3.14-3.14V645.7c0-1.83-1.49-3.32-3.32-3.32h-57.13c-1.85,0-3.34,1.5-3.34,3.34v45.87c0,2.02-1.64,3.66-3.66,3.66h-15.82c-1.9,0-3.43-1.54-3.43-3.43V571.88h22.91v47.47c0,1.91,1.55,3.46,3.46,3.46h56.97c1.86,0,3.37-1.51,3.37-3.37v-47.56H1001z"/>

  <!-- WEB SERVICES in accent blue -->
  <text x="620" y="769" font-family="Arial, Helvetica, sans-serif" font-size="44" fill="#00A4FF" letter-spacing="10" text-anchor="middle">WEB SERVICES</text>
</svg>
